<svg width="24" height="24" viewBox="0 0 24 24" fill="none" xmlns="http://www.w3.org/2000/svg">
<rect width="24" height="24" fill="#434952"/>
<path d="M-6754 -1741C-6754 -1742.1 -6753.1 -1743 -6752 -1743H8112C8113.1 -1743 8114 -1742.1 8114 -1741V3386C8114 3387.1 8113.1 3388 8112 3388H-6752C-6753.1 3388 -6754 3387.1 -6754 3386V-1741Z" fill="#404040"/>
<path d="M-6752 -1742H8112V-1744H-6752V-1742ZM8113 -1741V3386H8115V-1741H8113ZM8112 3387H-6752V3389H8112V3387ZM-6753 3386V-1741H-6755V3386H-6753ZM-6752 3387C-6752.55 3387 -6753 3386.55 -6753 3386H-6755C-6755 3387.66 -6753.66 3389 -6752 3389V3387ZM8113 3386C8113 3386.55 8112.55 3387 8112 3387V3389C8113.66 3389 8115 3387.66 8115 3386H8113ZM8112 -1742C8112.55 -1742 8113 -1741.55 8113 -1741H8115C8115 -1742.66 8113.66 -1744 8112 -1744V-1742ZM-6752 -1744C-6753.66 -1744 -6755 -1742.66 -6755 -1741H-6753C-6753 -1741.55 -6752.55 -1742 -6752 -1742V-1744Z" fill="white" fill-opacity="0.1"/>
<g clip-path="url(#clip0_1627_37733)">
<rect x="-40" y="-200" width="1440" height="1024" rx="10" fill="#31353F"/>
<rect width="256" height="1024" transform="translate(-40 -200)" fill="#1B2028"/>
<g filter="url(#filter0_d_1627_37733)">
<rect x="-12" y="-77" width="197" height="50" rx="10" fill="#3A6FF8"/>
</g>
<path d="M18.32 12.75H15C12.51 12.75 11.25 11.34 11.25 8.55002V5.68002C11.25 4.66002 11.37 3.20002 12.43 2.40002C13.32 1.74002 14.6 1.69002 16.49 2.24002C18.97 2.96002 21.04 5.03002 21.76 7.51002C22.31 9.39002 22.26 10.68 21.6 11.56C20.8 12.63 19.34 12.75 18.32 12.75ZM14.28 3.36002C13.87 3.36002 13.55 3.44002 13.34 3.60002C12.95 3.89002 12.76 4.57002 12.76 5.68002V8.56002C12.76 10.8 13.62 11.26 15.01 11.26H18.33C19.43 11.26 20.11 11.07 20.41 10.68C20.76 10.22 20.73 9.30002 20.34 7.95002C19.76 5.98002 18.06 4.27002 16.09 3.70002C15.35 3.47002 14.75 3.36002 14.28 3.36002Z" fill="#9E9E9E"/>
<path d="M11.0699 22.75C10.5399 22.75 9.99988 22.71 9.45988 22.62C5.36988 21.96 2.03988 18.64 1.37988 14.55C0.529883 9.29002 3.91988 4.33002 9.10988 3.27002C9.51988 3.19002 9.90988 3.45002 9.99988 3.85002C10.0799 4.26002 9.81988 4.65002 9.41988 4.74002C5.02988 5.64002 2.14988 9.84002 2.87988 14.31C3.43988 17.77 6.24988 20.58 9.70988 21.14C14.1999 21.86 18.3899 18.97 19.2799 14.56C19.3599 14.15 19.7599 13.89 20.1599 13.97C20.5699 14.05 20.8299 14.45 20.7499 14.85C19.7999 19.52 15.7199 22.75 11.0699 22.75Z" fill="#9E9E9E"/>
</g>
<defs>
<filter id="filter0_d_1627_37733" x="-40" y="-105" width="261" height="114" filterUnits="userSpaceOnUse" color-interpolation-filters="sRGB">
<feFlood flood-opacity="0" result="BackgroundImageFix"/>
<feColorMatrix in="SourceAlpha" type="matrix" values="0 0 0 0 0 0 0 0 0 0 0 0 0 0 0 0 0 0 127 0" result="hardAlpha"/>
<feOffset dx="4" dy="4"/>
<feGaussianBlur stdDeviation="16"/>
<feComposite in2="hardAlpha" operator="out"/>
<feColorMatrix type="matrix" values="0 0 0 0 0.403533 0 0 0 0 0.351667 0 0 0 0 1 0 0 0 0.07 0"/>
<feBlend mode="normal" in2="BackgroundImageFix" result="effect1_dropShadow_1627_37733"/>
<feBlend mode="normal" in="SourceGraphic" in2="effect1_dropShadow_1627_37733" result="shape"/>
</filter>
<clipPath id="clip0_1627_37733">
<rect x="-40" y="-200" width="1440" height="1024" rx="10" fill="white"/>
</clipPath>
</defs>
</svg>
