<svg width="16" height="16" viewBox="0 0 16 16" fill="none" xmlns="http://www.w3.org/2000/svg">
<path d="M7.97755 0.424939C3.83755 0.439939 0.48505 3.80744 0.50005 7.94744C0.51505 12.0874 3.88255 15.4399 8.02255 15.4249C12.1625 15.4099 15.515 12.0424 15.5 7.90244C15.4851 3.76244 12.1175 0.417439 7.97755 0.424939ZM9.69505 7.99994C10.2801 8.20244 11.0676 8.63744 11.0676 9.97994C11.0676 11.1349 10.16 12.0649 9.05005 12.0649H8.56255V12.4999C8.56255 12.8074 8.30755 13.0624 8.00005 13.0624C7.69255 13.0624 7.43755 12.8074 7.43755 12.4999V12.0649H7.16755C5.93755 12.0649 4.94005 11.0299 4.94005 9.75494C4.94005 9.44744 5.19505 9.19244 5.50255 9.19244C5.81005 9.19244 6.06505 9.44744 6.06505 9.75494C6.06505 10.4074 6.56005 10.9399 7.16755 10.9399H7.43755V8.40494L6.30505 7.99994C5.72005 7.79744 4.93255 7.36244 4.93255 6.01994C4.93255 4.86494 5.84005 3.93494 6.95005 3.93494H7.43755V3.49994C7.43755 3.19244 7.69255 2.93744 8.00005 2.93744C8.30755 2.93744 8.56255 3.19244 8.56255 3.49994V3.93494H8.83255C10.0625 3.93494 11.0601 4.96994 11.0601 6.24494C11.0601 6.55244 10.805 6.80744 10.4976 6.80744C10.1901 6.80744 9.93505 6.55244 9.93505 6.24494C9.93505 5.59244 9.44005 5.05994 8.83255 5.05994H8.56255V7.59494L9.69505 7.99994Z" fill="#FFC01E"/>
</svg>
